<svg width="32" height="30" fill="none" xmlns="http://www.w3.org/2000/svg"><path d="M27.36 15.207c-.13 0-.13 0-.258-.136-.13-.136-.13-.271 0-.407l2.194-1.9c.387-.407.645-.814.645-1.492 0-.543-.13-.95-.516-1.357l-1.807-2.307c-.13-.135-.13-.27 0-.407 0 0 .129-.135.258-.135.903.135 1.936-.136 2.581-.814 1.42-1.222 1.549-3.528.387-5.02C29.683-.262 27.49-.398 26.07.823a3.413 3.413 0 0 0-1.161 2.578c0 .136 0 .136-.13.272-.128.135-.258.135-.386 0l-2.065-2.578a1.36 1.36 0 0 0-.904-.407c-.516 0-1.032.135-1.42.407l-8 7.19c-.259.272-.517.544-.646.95-.387 0-.645.272-1.033.408l-2.194 1.9c-.129.135-.258.135-.387 0 0 0-.129-.136-.129-.272.13-.95-.129-2.035-.774-2.714-1.162-1.492-3.355-1.628-4.775-.407-1.42 1.221-1.549 3.528-.387 5.02.645.815 1.548 1.222 2.452 1.222.129 0 .129 0 .258.135.129.136.129.272 0 .407l-2.194 1.9c-.516.814-.645 2.035 0 2.985L4 22.127c.129.135.129.271 0 .407 0 0-.13.135-.258.135-.904-.135-1.936.136-2.581.814C.516 24.162 0 24.976 0 25.927s.258 1.9.774 2.578c.646.678 1.42 1.221 2.323 1.221h.258c.775 0 1.55-.271 2.194-.814a3.412 3.412 0 0 0 1.162-2.578c0-.136 0-.136.129-.271.129-.136.258-.136.387 0l1.807 2.306c.645.814 1.936.95 2.71.272l8.002-7.192c.258-.271.516-.542.645-.95.387 0 .645-.135 1.032-.407l2.194-1.9c.13-.135.258-.135.387 0 0 0 .13.137.13.272-.13.95.128 2.035.774 2.714 1.161 1.492 3.355 1.628 4.775.407 1.42-1.221 1.548-3.528.387-5.02-.904-.95-1.807-1.357-2.71-1.357Zm-8.776 4.613-8.002 7.191h-.258L8.39 24.705c-.517-.543-1.162-.814-1.807-.679-.387.136-.645.272-.904.407-.387.407-.645.95-.645 1.493 0 .543-.258.95-.516 1.357-.387.271-.774.407-1.162.407-.387 0-.774-.272-1.032-.543-.516-.407-.645-.814-.645-1.221 0-.407.258-.814.516-1.221.387-.272.774-.407 1.161-.407h.388a2.4 2.4 0 0 0 1.548-.543c.13-.136.258-.407.387-.814.259-.679.13-1.493-.387-2.171l-1.807-2.307v-.271l2.194-2.035c.517-.543.775-1.222.646-2.036-.13-.407-.258-.678-.387-.95a3.036 3.036 0 0 0-1.42-.814c-.516 0-.903-.27-1.29-.542-.517-.679-.517-1.764.128-2.443a1.709 1.709 0 0 1 2.323.136c.259.407.517.95.388 1.493 0 .542.129 1.085.516 1.628.258.271.516.543.903.678.645.272 1.42.136 2.065-.407l2.194-1.9h.258l1.936 2.307v.136s0 .136-.13.136c0 0-.128.135-.257.135-.904-.135-1.936.136-2.581.814-1.033.95-1.42 2.443-1.033 3.8.13.407.387.814.646 1.22 1.161 1.493 3.355 1.629 4.775.408a3.413 3.413 0 0 0 1.161-2.578c0-.136 0-.136.13-.272.128-.135.257-.135.386 0l1.936 2.307c-.258.271-.258.407-.387.407Zm9.68.136a1.709 1.709 0 0 1-2.324-.136c-.258-.407-.516-.95-.387-1.492 0-.543-.13-1.086-.516-1.629-.258-.271-.517-.542-.904-.678-.258-.136-.516-.136-.645-.136-.516 0-.903.136-1.29.543l-2.194 1.9h-.259L17.81 16.02c-.517-.543-1.162-.814-1.807-.679-.387.136-.645.272-.903.407-.388.408-.646.95-.646 1.493 0 .543-.258.95-.516 1.357a1.708 1.708 0 0 1-2.323-.136c-.13-.136-.258-.407-.258-.543-.13-.678 0-1.356.516-1.763.387-.272.904-.543 1.42-.408a2.4 2.4 0 0 0 1.548-.542c.259-.272.517-.543.646-.95 0-.136.129-.271.129-.543v-.542c0-.408-.13-.679-.516-1.086L13.293 9.78v-.27l7.872-6.92h.258l1.936 2.306c.516.543 1.161.814 1.807.678.387-.135.645-.271.903-.407.387-.407.646-.95.646-1.492 0-.543.258-.95.516-1.357.387-.272.774-.407 1.161-.407s.774.271 1.033.542c.516.679.516 1.764-.13 2.443-.129.271-.645.407-1.16.407a2.4 2.4 0 0 0-1.55.543c-.258.135-.387.407-.516.814a2.257 2.257 0 0 0 .258 2.035l1.936 2.307v.271l-2.194 2.035c-.516.543-.774 1.221-.645 1.9.129.407.258.678.387.95.387.407.904.678 1.42.678.516 0 .903.271 1.29.543.517.95.517 2.035-.258 2.578Z" fill="#F79429"/></svg>