<svg width="16" height="18" fill="none" xmlns="http://www.w3.org/2000/svg"><path d="M6.47 16.884c.648 0 1.173-.532 1.173-1.189 0-.656-.525-1.188-1.174-1.188-.648 0-1.174.532-1.174 1.188 0 .657.526 1.189 1.174 1.189ZM11.28 16.884c.65 0 1.175-.532 1.175-1.189 0-.656-.526-1.188-1.174-1.188-.649 0-1.175.532-1.175 1.188 0 .657.526 1.189 1.175 1.189Z" stroke="#444" stroke-miterlimit="10"/><path d="M14.931 4.166a1.076 1.076 0 0 0-.842-.407H4.44s-.166-.575-.339-.755l-1.493-1.57a.659.659 0 0 0-.938-.02.678.678 0 0 0-.013.95l1.487 1.57c.02.019.026.038.032.058l1.347 8.041c.115.704.708 1.22 1.416 1.22l6.714.04h.006a.666.666 0 0 0 .664-.666.666.666 0 0 0-.657-.671l-6.727-.04a.106.106 0 0 1-.108-.096l-.268-1.285c.134.032.274.051.421.051h6.746c.689 0 1.282-.49 1.423-1.175l.995-4.321c.07-.33-.012-.665-.217-.924Z" stroke="#444" stroke-miterlimit="10" stroke-linecap="round" stroke-linejoin="round"/><path d="M5.148 6.924H1.063a.623.623 0 0 1-.619-.626c0-.343.275-.627.62-.627h4.084a.62.62 0 0 1 .619.627.62.62 0 0 1-.62.626ZM6.775 8.72H2.69a.62.62 0 0 1-.619-.627.62.62 0 0 1 .62-.626h4.084a.62.62 0 0 1 .619.626.62.62 0 0 1-.62.627Z" fill="#444"/></svg>