<svg width="15" height="14" fill="none" xmlns="http://www.w3.org/2000/svg"><path d="M12.734 6.822c-.06 0-.06 0-.12-.061-.06-.06-.06-.122 0-.183l1.021-.852c.18-.182.3-.365.3-.669a.787.787 0 0 0-.24-.608l-.84-1.035c-.06-.06-.06-.122 0-.183 0 0 .06-.06.12-.06.42.06.9-.061 1.2-.366.661-.547.721-1.582.18-2.251-.54-.67-1.56-.73-2.222-.183-.36.304-.54.73-.54 1.156 0 .061 0 .061-.06.122s-.12.061-.18 0L10.39.493a.644.644 0 0 0-.42-.183c-.24 0-.48.061-.66.183L5.585 3.718c-.12.122-.24.244-.3.426-.18 0-.3.122-.48.183l-1.022.852c-.06.06-.12.06-.18 0 0 0-.06-.061-.06-.122.06-.426-.06-.913-.36-1.217-.541-.67-1.562-.73-2.223-.183-.66.548-.72 1.583-.18 2.252.3.365.72.548 1.141.548.06 0 .06 0 .12.06.06.061.06.122 0 .183l-1.02.852c-.241.365-.301.913 0 1.339l.84 1.034c.06.061.06.122 0 .183 0 0-.06.06-.12.06-.42-.06-.901.062-1.201.366-.3.304-.541.67-.541 1.095 0 .426.12.852.36 1.157.3.304.661.547 1.082.547h.12c.36 0 .72-.121 1.02-.365.361-.304.541-.73.541-1.156 0-.06 0-.06.06-.122.06-.06.12-.06.18 0l.842 1.035c.3.365.9.426 1.261.122L9.19 9.62c.12-.122.24-.243.3-.426.18 0 .3-.06.481-.182l1.021-.852c.06-.061.12-.061.18 0 0 0 .06.06.06.121-.06.426.06.913.36 1.217.541.67 1.563.73 2.223.183.661-.548.721-1.582.18-2.252-.42-.426-.84-.608-1.261-.608ZM8.65 8.89l-3.725 3.225h-.12l-.9-1.034c-.241-.244-.541-.365-.842-.305-.18.061-.3.122-.42.183-.18.183-.3.426-.3.67 0 .243-.12.425-.24.608a.96.96 0 0 1-.541.183c-.18 0-.36-.122-.48-.244-.241-.182-.301-.365-.301-.548 0-.182.12-.365.24-.547a.96.96 0 0 1 .54-.183h.18c.241 0 .481-.06.722-.243.06-.061.12-.183.18-.365.12-.305.06-.67-.18-.974l-.841-1.035v-.121l1.02-.913c.241-.244.361-.548.301-.913-.06-.183-.12-.304-.18-.426a1.426 1.426 0 0 0-.66-.365c-.241 0-.421-.122-.601-.244a.844.844 0 0 1 .06-1.095.817.817 0 0 1 1.08.06c.121.184.241.427.181.67 0 .244.06.487.24.73.12.122.24.244.42.305.301.122.662.06.962-.183l1.021-.852h.12l.901 1.035v.06s0 .062-.06.062c0 0-.06.06-.12.06-.42-.06-.901.061-1.201.366-.48.426-.661 1.095-.48 1.704.06.182.18.365.3.547.54.67 1.561.73 2.222.183.36-.304.54-.73.54-1.156 0-.061 0-.061.06-.122s.12-.061.18 0l.902 1.034c-.12.122-.12.183-.18.183Zm4.505.06a.817.817 0 0 1-1.082-.06c-.12-.183-.24-.426-.18-.67 0-.243-.06-.486-.24-.73-.12-.121-.24-.243-.42-.304-.12-.06-.24-.06-.301-.06-.24 0-.42.06-.6.243l-1.022.852h-.12l-.9-1.035c-.241-.243-.541-.365-.842-.304-.18.06-.3.121-.42.182-.18.183-.3.426-.3.67 0 .243-.12.426-.24.608a.817.817 0 0 1-1.082-.06.464.464 0 0 1-.12-.244c-.06-.304 0-.609.24-.791.18-.122.42-.244.66-.183.241 0 .481-.06.722-.243.12-.122.24-.244.3-.426 0-.061.06-.122.06-.244V5.91c0-.183-.06-.304-.24-.487l-.841-1.034v-.122L9.85 1.162h.12l.901 1.035c.24.243.54.365.84.304.181-.06.301-.122.421-.182.18-.183.3-.426.3-.67 0-.243.12-.426.241-.608a.96.96 0 0 1 .54-.183c.18 0 .361.122.481.243.24.305.24.792-.06 1.096-.06.122-.3.182-.54.182-.24 0-.481.061-.721.244-.12.06-.18.182-.24.365-.12.304-.06.67.12.913l.9 1.034v.122l-1.02.913c-.24.243-.361.548-.301.852.06.182.12.304.18.426.18.182.42.304.661.304.24 0 .42.122.6.244.24.426.24.912-.12 1.156Z" fill="#fff"/></svg>