<svg width="16" height="19" fill="none" xmlns="http://www.w3.org/2000/svg"><path d="M3.866 4c-.017 0-.034 0-.051.002a.49.49 0 0 0-.385.253L1.05 8.415H.494a.396.396 0 0 0-.05 0A.492.492 0 0 0 0 8.912v2.01a.498.498 0 0 0 .494.496H.56l.922 6.36a.5.5 0 0 0 .166.302c.09.078.203.12.32.12H13.78a.49.49 0 0 0 .488-.421l.923-6.36h.07a.49.49 0 0 0 .346-.147.5.5 0 0 0 .144-.35V8.91a.49.49 0 0 0-.49-.495h-.555l-2.382-4.16a.495.495 0 0 0-.447-.254.492.492 0 0 0-.417.259.503.503 0 0 0 .01.493l2.096 3.662H2.188L4.28 4.754A.498.498 0 0 0 3.866 4ZM.985 9.41h13.781v1.012H.986V9.41Zm.57 2.007h12.64l-.84 5.79H2.394l-.84-5.79Zm3.908 1.487a.379.379 0 0 0-.375.39v2.009c0 .101.04.199.11.27a.377.377 0 0 0 .538 0c.07-.07.11-.169.11-.27v-2.01a.379.379 0 0 0-.383-.39Zm2.393 0a.384.384 0 0 0-.375.39v2.009a.383.383 0 0 0 .38.391c.102 0 .2-.042.27-.115a.385.385 0 0 0 .11-.276v-2.01a.383.383 0 0 0-.384-.39Zm2.393 0a.385.385 0 0 0-.372.39v2.01a.378.378 0 1 0 .756 0v-2.01a.386.386 0 0 0-.111-.277.376.376 0 0 0-.273-.113Z" fill="#2EA81A"/><path d="M8.254 5.759c-.196 0-.355-.122-.355-.272V.272c0-.15.16-.272.355-.272.196 0 .355.122.355.272v5.215c0 .15-.159.272-.355.272Z" fill="#2EA81A"/><path d="M8.254 5.902a.354.354 0 0 1-.265-.12L6.09 3.633a.36.36 0 0 1 .029-.506.353.353 0 0 1 .5.028l1.635 1.85 1.635-1.85a.353.353 0 0 1 .5-.028.36.36 0 0 1 .03.506l-1.9 2.15a.355.355 0 0 1-.265.12Z" fill="#2EA81A"/></svg>