<svg width="11" height="17" fill="none" xmlns="http://www.w3.org/2000/svg"><g clip-path="url(#a)" fill="#2EA81A"><path d="M9.391 16.576H1.318a.999.999 0 0 1-.996-1V5.56c0-.551.446-1 .996-1H9.39c.549 0 .996.447.996 1v10.016c0 .552-.447 1-.996 1Zm0-1.002v.501-.5ZM9.39 5.56l-8.072.002.001 10.015 8.07-.001V5.56Z"/><path d="M2.822 5.49h-.507a.872.872 0 0 1-.869-.872V1.833c0-.48.39-.873.869-.873h.507c.479 0 .869.392.869.873v2.785c0 .48-.39.873-.869.873ZM2.315 1.82c-.007 0-.014.007-.014.014v2.785c0 .007.007.014.014.014h.507c.007 0 .014-.007.014-.014V1.833c0-.007-.007-.014-.014-.014h-.507Z"/><path d="M4.448 4.184h-.959a.216.216 0 0 0-.215.216v.444c0 .119.097.216.215.216h.959a.216.216 0 0 0 .215-.216V4.4a.216.216 0 0 0-.215-.216Z"/><path d="M5.825 4.184h-.959a.216.216 0 0 0-.215.216v.444c0 .119.097.216.215.216h.959a.216.216 0 0 0 .215-.216V4.4a.214.214 0 0 0-.215-.216Z"/><path d="M7.204 4.184h-.959a.216.216 0 0 0-.215.216v.444c0 .119.097.216.215.216h.959a.216.216 0 0 0 .215-.216V4.4a.216.216 0 0 0-.215-.216ZM8.604 4.184h-.958a.216.216 0 0 0-.215.216v.444c0 .119.097.216.215.216h.958a.216.216 0 0 0 .215-.216V4.4a.214.214 0 0 0-.215-.216ZM1.114 12.406l-.527-.85 4.802-3.004 4.834 2.972-.52.855-4.31-2.65-4.28 2.677Z"/></g><defs><clipPath id="a"><path fill="#fff" transform="translate(.322 .96)" d="M0 0h10.065v15.616H0z"/></clipPath></defs></svg>