<svg width="32" height="34" viewBox="0 0 29 32" fill="none" xmlns="http://www.w3.org/2000/svg">
<path d="M14.137 10.3659C13.7843 10.3659 13.498 10.1469 13.498 9.87696V0.488958C13.498 0.219053 13.7843 0 14.137 0C14.4898 0 14.776 0.219053 14.776 0.488958V9.87696C14.776 10.1469 14.4898 10.3659 14.137 10.3659Z" fill="white"/>
<path d="M14.1377 10.624C13.955 10.624 13.7825 10.5453 13.661 10.4085L10.2425 6.53744C10.0073 6.27163 10.0303 5.86387 10.2936 5.62644C10.5568 5.38902 10.9607 5.41224 11.1958 5.67806L14.1377 9.00849L17.0796 5.67806C17.3148 5.41224 17.7186 5.38902 17.9819 5.62644C18.2452 5.86387 18.2682 6.27163 18.033 6.53744L14.6144 10.4085C14.493 10.5453 14.3192 10.624 14.1377 10.624Z" fill="white"/>
<path d="M6.82576 6.77247L6.8295 6.76593L6.83311 6.75931C6.85363 6.72173 6.88918 6.69736 6.92918 6.69111C6.93572 6.69083 6.94243 6.69064 6.94912 6.69055C6.97933 6.69229 7.00887 6.70421 7.03125 6.72328C7.05785 6.74714 7.0742 6.77829 7.07913 6.81025L7.07912 6.81025L7.07966 6.81363C7.085 6.8473 7.07818 6.88243 7.06055 6.91178L7.05632 6.91882L7.05225 6.92594L3.28674 13.5167L2.64568 14.6388H3.93795H24.4188H25.7122L25.0697 13.5162L21.2974 6.92544L21.2975 6.9254L21.2918 6.91589C21.2654 6.87128 21.2638 6.81334 21.2887 6.76638C21.3141 6.72034 21.3588 6.69543 21.4026 6.69407L21.4063 6.69393C21.4297 6.69308 21.4531 6.69857 21.4748 6.71093C21.4967 6.72332 21.5151 6.7415 21.5284 6.76544L21.5284 6.76547L21.533 6.77349L25.8197 14.2614L26.0358 14.6388H26.4706H27.4669C27.4985 14.6392 27.5315 14.6516 27.5588 14.6782C27.585 14.7056 27.6005 14.7431 27.6009 14.7823V18.3959C27.6005 18.439 27.5839 18.4757 27.5589 18.5009C27.5324 18.5276 27.4988 18.5409 27.4659 18.5413H27.3435H26.6945L26.6013 19.1836L24.9409 30.6279C24.9409 30.6284 24.9408 30.6289 24.9407 30.6294C24.935 30.6645 24.9172 30.696 24.8914 30.7185C24.8689 30.738 24.8386 30.75 24.8046 30.75H3.54338C3.51405 30.75 3.48384 30.7394 3.45855 30.7175C3.43428 30.6964 3.41622 30.6656 3.41021 30.6284C3.41013 30.6279 3.41005 30.6274 3.40997 30.6269L1.74961 19.1826L1.65642 18.5403H1.00738H0.889498V18.5403L0.88324 18.5403C0.852757 18.5406 0.819415 18.5284 0.792433 18.5013C0.765545 18.4743 0.75 18.4373 0.75 18.3981V14.78C0.75 14.7405 0.764014 14.7057 0.78751 14.6795L0.787667 14.6793C0.805931 14.6589 0.829576 14.6447 0.855779 14.6382L0.865096 14.6388H0.889498H1.88811H2.32298L2.53902 14.2614L6.82576 6.77247ZM1.77218 14.9282H1.02218V15.6782V17.5V18.25H1.77218H26.5797H27.3297V17.5V15.6782V14.9282H26.5797H1.77218ZM2.79807 18.5413H1.93147L2.05583 19.3989L3.56691 29.8193L3.66006 30.4616H4.30914H24.0398H24.6889L24.7821 29.8193L26.2931 19.3989L26.4175 18.5413H25.5509H2.79807Z" fill="white" stroke="white" stroke-width="1.5"/>
</svg>
