<svg width="30" height="33" fill="none" xmlns="http://www.w3.org/2000/svg"><path d="M11.614 31.18c1.25 0 2.264-1.026 2.264-2.291s-1.014-2.291-2.264-2.291c-1.25 0-2.263 1.026-2.263 2.291s1.013 2.291 2.263 2.291ZM20.89 31.18c1.25 0 2.263-1.026 2.263-2.291s-1.013-2.291-2.263-2.291-2.264 1.026-2.264 2.291 1.013 2.291 2.264 2.291Z" stroke="#DF0021" stroke-width="2" stroke-miterlimit="10"/><path d="M27.927 6.664a2.074 2.074 0 0 0-1.624-.784H7.702s-.32-1.109-.652-1.457L4.17 1.397a1.27 1.27 0 0 0-1.808-.037 1.307 1.307 0 0 0-.025 1.83l2.867 3.026c.036.037.049.074.061.112l2.596 15.501c.221 1.357 1.365 2.354 2.73 2.354l12.943.074h.012c.701 0 1.28-.573 1.28-1.282 0-.71-.566-1.295-1.267-1.295l-12.967-.075a.204.204 0 0 1-.21-.187l-.516-2.477c.258.062.53.1.812.1h13.004c1.328 0 2.472-.947 2.743-2.267l1.92-8.33a2.143 2.143 0 0 0-.42-1.78Z" stroke="#DF0021" stroke-width="1.5" stroke-miterlimit="10" stroke-linecap="round" stroke-linejoin="round"/><path d="M9.067 11.98H1.193A1.202 1.202 0 0 1 0 10.774c0-.66.529-1.208 1.193-1.208h7.874c.664 0 1.193.536 1.193 1.208 0 .672-.529 1.208-1.193 1.208ZM12.204 15.442H4.33a1.194 1.194 0 0 1-1.193-1.208c0-.672.529-1.208 1.193-1.208h7.873c.665 0 1.194.536 1.194 1.208 0 .672-.53 1.208-1.194 1.208Z" fill="#DF0021"/></svg>